<?xml version="1.0" encoding="UTF-8"?>
<svg version="1.1" xmlns="http://www.w3.org/2000/svg" width="512" height="511">
<path d="M0 0 C3.93554862 0.02684882 7.8682465 0.00003876 11.80371094 -0.03173828 C43.34446601 -0.07530964 73.81064719 6.61986058 102.93652344 18.65185547 C103.63374512 18.93609375 104.3309668 19.22033203 105.04931641 19.51318359 C121.66932975 26.3578055 137.28380773 35.24271846 151.93652344 45.65185547 C152.83419434 46.28679932 152.83419434 46.28679932 153.75 46.93457031 C163.54138378 53.91050095 172.49940403 61.48150721 181.10742188 69.86962891 C182.92830105 71.6438438 184.76406273 73.40167061 186.60058594 75.15966797 C193.93763607 82.25853441 200.5068872 89.67003475 206.60107422 97.85888672 C207.96935217 99.69593119 209.35637873 101.51774478 210.74511719 103.33935547 C217.11054112 111.76605863 222.72853406 120.46947645 227.93652344 129.65185547 C228.91878906 131.35148437 228.91878906 131.35148437 229.92089844 133.08544922 C263.01765308 191.72130177 268.57390732 263.58338063 250.69433594 327.81982422 C235.94685858 378.19428118 204.97383496 425.7516068 162.93652344 457.65185547 C162.3696582 458.08449707 161.80279297 458.51713867 161.21875 458.96289062 C152.76720298 465.38579677 144.1423743 471.34670858 134.93652344 476.65185547 C134.20836426 477.07466797 133.48020508 477.49748047 132.72998047 477.93310547 C108.06195966 492.16485032 81.86101681 502.00081728 53.93652344 507.65185547 C53.00356445 507.8494043 52.07060547 508.04695313 51.109375 508.25048828 C35.46569991 511.45259397 20.03666877 512.04509517 4.12402344 512.08935547 C3.1876001 512.09552887 2.25117676 512.10170227 1.28637695 512.10806274 C-16.43679048 512.18321028 -33.9291796 510.36021215 -51.25097656 506.52685547 C-52.17547607 506.32294189 -53.09997559 506.11902832 -54.05249023 505.90893555 C-72.671577 501.58535019 -90.92057869 495.1027441 -108.06347656 486.65185547 C-108.8253125 486.2797998 -109.58714844 485.90774414 -110.37207031 485.52441406 C-127.47875742 477.08694093 -143.28710508 466.70566574 -158.06347656 454.65185547 C-158.6195459 454.19875 -159.17561523 453.74564453 -159.74853516 453.27880859 C-172.76000859 442.58806289 -184.74430965 430.98942586 -195.06347656 417.65185547 C-195.86140625 416.64767578 -196.65933594 415.64349609 -197.48144531 414.60888672 C-201.97027043 408.92333296 -206.21729239 403.10690778 -210.25097656 397.08935547 C-210.6305249 396.52506836 -211.01007324 395.96078125 -211.40112305 395.37939453 C-230.76358712 366.04408259 -243.27904768 332.24447942 -249.06347656 297.65185547 C-249.24531494 296.71212891 -249.42715332 295.77240234 -249.61450195 294.80419922 C-251.79988465 282.2014027 -251.50421663 269.40310026 -251.50097656 256.65185547 C-251.50171173 255.40130371 -251.5024469 254.15075195 -251.50320435 252.86230469 C-251.47398125 233.96813677 -250.75273174 216.03943735 -246.06347656 197.65185547 C-245.80115234 196.59853027 -245.53882813 195.54520508 -245.26855469 194.45996094 C-240.34442658 175.19150519 -233.5765007 156.32140155 -224.19238281 138.76513672 C-223.39321625 137.26911903 -222.60235886 135.76864884 -221.81738281 134.26513672 C-216.06234301 123.25029793 -209.89463138 112.96977653 -202.24462891 103.16650391 C-201.22816154 101.86303894 -200.23170467 100.54401367 -199.23925781 99.22216797 C-187.48157734 83.67811582 -174.33219217 69.76076452 -159.06347656 57.65185547 C-158.20367187 56.92482422 -157.34386719 56.19779297 -156.45800781 55.44873047 C-113.3454245 19.02273689 -56.04981113 -0.45257611 0 0 Z " fill="#2C90CB" transform="translate(251.0634765625,-0.65185546875)"/>
<path d="M0 0 C64.68 0 129.36 0 196 0 C196 65.01 196 130.02 196 197 C160.03 197 124.06 197 87 197 C87 167.96 87 138.92 87 109 C58.29 109 29.58 109 0 109 C0 73.03 0 37.06 0 0 Z " fill="#FEFEFE" transform="translate(190,124)"/>
<path d="M0 0 C43.23 0 86.46 0 131 0 C131 43.23 131 86.46 131 131 C87.77 131 44.54 131 0 131 C0 87.77 0 44.54 0 0 Z " fill="#FEFEFE" transform="translate(124,255)"/>
<path d="M0 0 C0.66 0.33 1.32 0.66 2 1 C-6.25 9.25 -14.5 17.5 -23 26 C-23.66 25.67 -24.32 25.34 -25 25 C-17.11920435 16.09761973 -9.05852679 7.70938451 0 0 Z " fill="#206E9C" transform="translate(89,59)"/>
</svg>
