<?xml version="1.0" encoding="utf-8"?>
<!-- Generator: Adobe Illustrator 27.1.1, SVG Export Plug-In . SVG Version: 6.00 Build 0)  -->
<svg version="1.1" id="Layer_1" xmlns="http://www.w3.org/2000/svg" xmlns:xlink="http://www.w3.org/1999/xlink" x="0px" y="0px"
	 viewBox="0 0 512 512" style="enable-background:new 0 0 512 512;" xml:space="preserve">
<style type="text/css">
	.st0{fill:#FAAB07;}
	.st1{fill:#FFFFFF;}
	.st2{fill:#EB1923;}
</style>
<g>
	<path class="st0" d="M256.01,506.12c-44.6,0-85.54-14.93-111.89-37.22c-13.39,4-30.51,10.43-41.31,18.42
		c-9.25,6.83-8.1,13.78-6.43,16.59c7.32,12.35,125.51,7.88,159.63,4.04V506.12z"/>
	<path class="st0" d="M256.01,506.12c44.6,0,85.54-14.93,111.9-37.22c13.38,4,30.5,10.43,41.31,18.42
		c9.24,6.83,8.09,13.78,6.42,16.59c-7.32,12.35-125.51,7.88-159.63,4.04V506.12z"/>
	<path d="M256.27,238.83c73.65-0.5,132.67-14.75,152.67-20.22c4.77-1.3,7.32-3.64,7.32-3.64c0.02-0.67,0.3-11.99,0.3-17.83
		C416.57,98.81,370.15,0,256,0C141.85,0,95.43,98.81,95.43,197.13c0,5.84,0.28,17.16,0.3,17.83c0,0,2.07,2.19,5.87,3.25
		c18.47,5.14,78.6,20.1,154.12,20.62H256.27z"/>
	<path d="M456.41,320.74c-4.57-14.69-10.8-31.82-17.11-48.28c0,0-3.63-0.45-5.47,0.08c-56.62,16.45-125.26,26.93-177.56,26.3h-0.54
		c-52.01,0.62-120.18-9.74-176.61-26.03c-2.16-0.62-6.41-0.36-6.41-0.36c-6.31,16.46-12.54,33.59-17.11,48.28
		c-21.77,70.06-14.72,99.05-9.35,99.71c11.52,1.39,44.86-52.74,44.86-52.74c0,55.01,49.66,139.47,163.39,140.24
		c0.51-0.01,2.51-0.01,3.02,0c113.73-0.77,163.39-85.24,163.39-140.24c0,0,33.33,54.13,44.86,52.74
		C471.12,419.79,478.18,390.8,456.41,320.74"/>
	<path class="st1" d="M215.38,145.26c-15.49,0.7-28.71-16.94-29.55-39.36C185,83.46,196.86,64.71,212.34,64
		c15.47-0.69,28.69,16.94,29.53,39.37C242.72,125.82,230.86,144.57,215.38,145.26"/>
	<path class="st1" d="M326.16,105.9c-0.83,22.42-14.06,40.07-29.54,39.36c-15.48-0.7-27.34-19.45-26.49-41.89
		c0.84-22.43,14.06-40.07,29.53-39.37C315.14,64.71,327,83.46,326.16,105.9"/>
	<path class="st0" d="M353.68,176.94c-4.14-9.16-45.81-19.38-97.41-19.38h-0.55c-51.59,0-93.27,10.21-97.41,19.38
		c-0.19,0.4-0.3,0.84-0.3,1.3c0,0.66,0.23,1.26,0.57,1.77c3.49,5.08,49.77,30.2,97.14,30.2h0.55c47.38,0,93.65-25.12,97.14-30.2
		c0.35-0.51,0.57-1.11,0.57-1.77C353.98,177.77,353.87,177.33,353.68,176.94"/>
	<path d="M234.42,106.23c0.71,8.86-4.15,16.73-10.84,17.59c-6.7,0.86-12.69-5.62-13.41-14.48c-0.7-8.87,4.15-16.74,10.83-17.59
		C227.71,90.88,233.72,97.37,234.42,106.23"/>
	<path d="M276.96,109.19c1.37-2.45,10.69-15.34,29.98-10.65c5.07,1.24,7.41,3.05,7.91,3.76c0.73,1.05,0.93,2.55,0.19,4.57
		c-1.47,4.01-4.5,3.9-6.17,3.11c-1.08-0.51-14.52-9.46-26.91,3.9c-0.85,0.92-2.38,1.23-3.82,0.14
		C276.7,112.94,276.11,110.73,276.96,109.19"/>
	<path class="st1" d="M256.27,295.62h-0.54c-35.57,0.43-78.7-4.28-120.46-12.51c-3.57,20.7-5.73,46.72-3.88,77.76
		c4.68,78.44,51.27,127.74,123.16,128.46h2.92c71.9-0.72,118.48-50.02,123.17-128.46c1.85-31.04-0.31-57.06-3.88-77.76
		C334.99,291.34,291.85,296.05,256.27,295.62"/>
	<path class="st2" d="M154.95,289.06v77.19c0,0,35.36,7.13,70.79,2.19v-71.2C203.3,295.97,179.09,293.14,154.95,289.06"/>
	<path class="st2" d="M416.26,214.96c0,0-68.78,21.71-159.99,22.33h-0.54c-91.06-0.61-159.75-22.26-159.99-22.33l-23.04,57.5
		c57.62,17.37,129.03,28.57,183.03,27.92h0.54c54,0.65,125.4-10.54,183.03-27.92L416.26,214.96z"/>
</g>
</svg>
